#!OML:ASF F:\VICON\USERDATA\INSTALL\rory3\rory3.ASF
:FULLY-SPECIFIED
:DEGREES
1825
root 0.262347 18.7816 6.93034 15.7517 -17.4862 1.70053
lowerback -2.56936 -1.96924 5.55472
upperback -5.89161 -2.63335 0.406668
thorax -4.91026 -1.57418 -2.6291
lowerneck -6.83759 -12.1921 -14.7255
upperneck 17.5064 -15.7039 4.86029
head 8.11732 -8.0891 2.30924
rclavicle -2.27111e-014 6.75868e-015
rhumerus -33.3932 23.8835 -90.2908
rradius 69.0497
rwrist 16.992
rhand -18.0598 -29.8865
rfingers 7.12502
rthumb 8.21261 -779.707
lclavicle -2.27111e-014 6.75868e-015
lhumerus -51.0869 -11.0824 81.9943
lradius 77.3655
lwrist 0.803174
lhand -27.5988 -36.8018
lfingers 7.12502
lthumb -0.998459 -6.8244
rfemur -35.0395 13.1166 13.0053
rtibia 29.0495
rfoot 12.8248 -11.2323
rtoes -5.3254
lfemur -62.9757 20.4592 -14.6469
ltibia 128.948
lfoot -18.6931 -5.10284
ltoes -6.84458
1826
root 0.182369 18.5842 6.95396 15.8252 -16.9627 1.48924
lowerback -2.66307 -2.16881 5.59132
upperback -5.87846 -2.90263 0.51948
thorax -4.8636 -1.7058 -2.52939
lowerneck -7.02625 -12.2762 -14.8016
upperneck 17.5273 -15.791 4.91147
head 8.17715 -8.12574 2.31094
rclavicle 3.63279e-014 -3.57812e-015
rhumerus -34.279 23.3474 -90.6448
rradius 69.2984
rwrist 16.9999
rhand -17.7311 -29.8744
rfingers 7.12502
rthumb 8.52986 -779.682
lclavicle 3.63279e-014 -3.57812e-015
lhumerus -51.1819 -10.466 82.1073
lradius 77.6287
lwrist 0.819738
lhand -28.0675 -36.6216
lfingers 7.12502
lthumb -1.45106 -6.64675
rfemur -35.3894 13.3326 12.9026
rtibia 30.1896
rfoot 10.9386 -10.8631
rtoes -10.4902
lfemur -62.8421 19.7237 -14.6022
ltibia 128.61
lfoot -18.6242 -5.12615
ltoes -7.2171
1827
root 0.10644 18.3683 6.96737 15.792 -16.0877 1.50957
lowerback -2.50894 -2.47655 5.44683
upperback -5.96884 -3.2983 0.627433
thorax -5.06546 -1.89972 -2.31561
lowerneck -7.3707 -12.3395 -14.4839
upperneck 17.6754 -15.7705 4.37096
head 8.21279 -8.13397 2.07162
rclavicle -3.77691e-014 2.22639e-014
rhumerus -35.2318 22.8305 -90.8704
rradius 69.5251
rwrist 16.9768
rhand -17.4665 -30.7423
rfingers 7.12502
rthumb 8.78519 -780.539
lclavicle -3.77691e-014 2.22639e-014
lhumerus -51.3006 -9.84674 82.2657
lradius 78.1236
lwrist 1.46279
lhand -26.904 -37.7658
lfingers 7.12502
lthumb -0.327367 -7.78631
rfemur -35.4937 13.3021 12.5959
rtibia 31.145
rfoot 7.69907 -9.2899
rtoes -18.2364
lfemur -62.9655 18.3953 -14.8206
ltibia 128.387
lfoot -18.4729 -4.96947
ltoes -9.13631
1828
root 0.0313236 18.137 6.97423 15.8306 -15.13 1.60494
lowerback -2.40302 -2.77506 5.24502
upperback -6.11452 -3.68457 0.730858
thorax -5.29062 -2.08737 -2.07306
lowerneck -7.41266 -12.4168 -14.4358
upperneck 17.5676 -15.8269 4.14513
head 8.16661 -8.17358 1.98479
rclavicle 8.61235e-014 2.62396e-014
rhumerus -36.2279 22.3696 -90.9831
rradius 69.8099
rwrist 16.8202
rhand -17.426 -31.2807
rfingers 7.12502
rthumb 8.8243 -781.076
lclavicle 8.61235e-014 2.62396e-014
lhumerus -51.4718 -9.26937 82.4649
lradius 78.7
lwrist 1.90698
lhand -27.4046 -38.0989
lfingers 7.12502
lthumb -0.810835 -8.12072
rfemur -35.7871 12.9999 12.3424
rtibia 32.6044
rfoot 3.7164 -7.75724
rtoes -23.9795
lfemur -63.3307 17.0335 -15.1199
ltibia 128.299
lfoot -18.2573 -4.76814
ltoes -11.1104
1829
root -0.0313078 17.9629 7.09351 14.525 -16.1203 1.0159
lowerback -2.0128 -2.37433 5.89191
upperback -5.56889 -3.12962 0.706027
thorax -4.93454 -1.8194 -2.47581
lowerneck -7.05848 -12.4276 -14.6587
upperneck 17.217 -15.8587 4.20244
head 8.015 -8.201 2.06045
rclavicle 3.12092e-014 -5.96354e-015
rhumerus -37.2751 21.9766 -91.0197
rradius 70.0789
rwrist 16.5742
rhand -17.9324 -30.8134
rfingers 7.12502
rthumb 8.33562 -780.629
lclavicle 3.12092e-014 -5.96354e-015
lhumerus -51.681 -8.84528 82.8034
lradius 78.9941
lwrist 1.74642
lhand -28.3534 -38.4504
lfingers 7.12502
lthumb -1.72723 -8.47769
rfemur -34.2458 13.92 12.9156
rtibia 34.093
rfoot -0.495036 -6.32464
rtoes -24.6844
lfemur -59.5806 18.4993 -14.437
ltibia 127.283
lfoot -19.3885 -4.767
ltoes -10.2305
1830
root -0.106618 17.6999 7.05466 15.2147 -14.0825 0.773532
lowerback -2.04191 -2.92045 6.0187
upperback -6.00477 -3.83456 1.0614
thorax -5.42973 -2.18839 -2.1351
lowerneck -6.60504 -12.3641 -14.6573
upperneck 16.5485 -15.7999 4.15411
head 7.70357 -8.17785 2.10046
rclavicle 3.02401e-014 1.74931e-014
rhumerus -38.1769 21.5546 -90.9774
rradius 70.2161
rwrist 16.4547
rhand -18.5528 -30.916
rfingers 7.12502
rthumb 7.73681 -780.754
lclavicle 3.02401e-014 1.74931e-014
lhumerus -51.675 -8.50373 83.1804
lradius 78.9381
lwrist 0.999251
lhand -28.817 -39.1654
lfingers 7.12502
lthumb -2.17493 -9.19677
rfemur -35.5611 12.7217 13.3977
rtibia 36.2018
rfoot -3.81509 -6.67568
rtoes -21.7536
lfemur -61.8577 16.3995 -14.2832
ltibia 127.734
lfoot -18.5946 -5.23629
ltoes -9.20046
1831
root -0.170182 17.4826 7.06806 14.9106 -13.1929 0.400823
lowerback -1.63368 -3.12181 6.38109
upperback -5.91113 -4.06212 1.24109
thorax -5.60002 -2.31389 -2.11705
lowerneck -6.16806 -12.3466 -14.4738
upperneck 15.5413 -15.8127 4.1192
head 7.27776 -8.17053 2.1198
rclavicle 3.90115e-014 -2.38542e-015
rhumerus -38.8683 21.2067 -90.8914
rradius 70.3017
rwrist 16.3643
rhand -18.9108 -31.4651
rfingers 7.12502
rthumb 7.39124 -781.316
lclavicle 3.90115e-014 -2.38542e-015
lhumerus -51.3496 -8.18399 83.5201
lradius 78.6882
lwrist 0.166189
lhand -29.088 -40.1309
lfingers 7.12502
lthumb -2.43667 -10.1651
rfemur -36.0306 11.8726 14.2854
rtibia 38.2938
rfoot -7.28123 -6.81494
rtoes -19.7936
lfemur -61.6317 15.6591 -13.8875
ltibia 127.456
lfoot -18.497 -5.57105
ltoes -9.43886
1832
root -0.228135 17.2769 7.07834 14.5443 -12.71 0.0804188
lowerback -1.03911 -3.21669 6.50643
upperback -5.82415 -4.13157 1.45237
thorax -5.84797 -2.34988 -1.92913
lowerneck -5.51226 -12.4009 -14.6627
upperneck 14.5404 -15.9499 4.28849
head 6.88225 -8.2318 2.25079
rclavicle 3.8763e-014 -7.15625e-015
rhumerus -39.5094 21.0256 -90.7253
rradius 70.202
rwrist 16.3021
rhand -19.4176 -31.7637
rfingers 7.12502
rthumb 6.90205 -781.631
lclavicle 3.8763e-014 -7.15625e-015
lhumerus -50.867 -7.74416 83.9463
lradius 78.2441
lwrist -0.407283
lhand -29.5249 -41.1756
lfingers 7.12502
lthumb -2.85868 -11.215
rfemur -37.0233 10.684 15.3333
rtibia 40.9518
rfoot -10.7228 -6.64878
rtoes -15.8741
lfemur -61.2598 15.246 -13.7045
ltibia 127.064
lfoot -18.4594 -5.76093
ltoes -9.09814
